<?xml version="1.0" standalone="no"?>
<!DOCTYPE svg PUBLIC "-//W3C//DTD SVG 20010904//EN"
 "http://www.w3.org/TR/2001/REC-SVG-20010904/DTD/svg10.dtd">
<svg version="1.0" xmlns="http://www.w3.org/2000/svg"
 width="720.000000pt" height="720.000000pt" viewBox="0 0 720.000000 720.000000"
 preserveAspectRatio="xMidYMid meet">
<metadata>
Created by potrace 1.14, written by Peter Selinger 2001-2017
</metadata>
<g transform="translate(0.000000,720.000000) scale(0.100000,-0.100000)"
fill="#000000" stroke="none">
<path d="M3399 7196 c-2 -2 -50 -6 -106 -10 -56 -3 -108 -8 -115 -11 -7 -2
-35 -6 -63 -9 -58 -6 -209 -31 -275 -46 -25 -6 -54 -12 -65 -15 -85 -18 -383
-108 -410 -124 -5 -3 -14 -6 -20 -7 -50 -9 -391 -167 -520 -241 -88 -51 -295
-185 -336 -217 -15 -12 -39 -30 -54 -41 -153 -110 -379 -318 -522 -480 -60
-68 -70 -81 -123 -146 -14 -17 -31 -37 -37 -45 -7 -7 -13 -15 -13 -19 0 -3
-13 -20 -30 -38 -16 -18 -30 -38 -30 -44 0 -7 -4 -13 -10 -13 -5 0 -10 -7 -10
-15 0 -8 -4 -15 -9 -15 -11 0 -187 -286 -231 -375 -19 -38 -37 -72 -41 -75 -8
-7 -22 -43 -21 -52 1 -5 -3 -8 -8 -8 -6 0 -10 -8 -10 -18 0 -10 -4 -22 -9 -28
-10 -10 -76 -166 -74 -174 1 -3 -4 -14 -10 -25 -6 -11 -12 -22 -12 -25 -1 -3
-8 -21 -16 -40 -14 -31 -28 -77 -30 -97 -1 -5 -5 -16 -11 -26 -5 -10 -11 -26
-13 -35 -2 -9 -11 -42 -20 -72 -9 -30 -18 -62 -20 -70 -4 -14 -21 -82 -31
-122 -13 -57 -25 -111 -29 -143 -3 -19 -10 -58 -19 -101 -2 -12 -7 -43 -10
-70 -4 -27 -9 -65 -11 -84 -20 -148 -27 -527 -13 -705 17 -215 67 -502 118
-679 28 -96 81 -259 89 -271 3 -5 6 -12 6 -15 2 -16 66 -172 112 -269 46 -99
127 -253 166 -316 94 -153 145 -229 214 -320 5 -5 26 -34 48 -62 21 -29 43
-53 47 -53 4 0 8 -5 8 -11 0 -6 6 -16 13 -23 6 -7 41 -46 77 -87 127 -144 331
-337 436 -414 15 -11 32 -25 38 -30 20 -18 73 -60 96 -75 13 -8 35 -25 50 -37
15 -13 32 -23 38 -23 6 0 12 -4 14 -9 2 -5 17 -17 35 -27 17 -11 71 -43 120
-73 48 -30 117 -70 153 -89 36 -18 70 -38 76 -43 6 -5 14 -6 17 -2 4 3 7 1 7
-6 0 -7 4 -9 10 -6 5 3 10 1 10 -5 0 -6 4 -9 9 -6 5 4 11 1 13 -4 2 -6 10 -12
18 -14 14 -2 62 -23 156 -67 22 -10 44 -19 48 -19 4 0 22 -6 39 -14 35 -15 69
-29 77 -30 3 -1 10 -4 15 -7 6 -4 24 -10 40 -14 44 -12 45 -12 50 -15 3 -1 8
-3 13 -4 4 -1 40 -12 81 -25 41 -12 81 -24 90 -27 9 -2 36 -8 61 -15 80 -19
113 -27 150 -34 14 -3 36 -7 50 -10 13 -2 42 -7 64 -11 22 -3 43 -7 46 -9 3
-2 34 -6 70 -10 36 -4 74 -9 85 -11 114 -24 794 -24 834 0 3 2 34 7 69 10 63
6 201 31 337 61 90 19 384 108 410 124 6 3 12 6 15 6 3 0 39 14 80 29 136 53
391 178 505 249 82 51 252 164 263 174 8 7 23 18 35 25 19 10 151 113 183 143
6 5 37 33 69 60 78 67 224 212 307 305 58 66 77 89 123 148 5 7 18 21 28 30 9
9 17 22 17 28 0 7 7 14 15 18 8 3 15 12 15 21 0 8 4 15 10 15 5 0 16 13 25 29
8 16 20 35 28 43 21 21 177 273 177 285 0 6 3 13 8 15 4 2 21 30 37 63 17 33
33 62 38 63 4 2 5 8 1 13 -3 5 0 9 6 9 6 0 8 5 5 10 -3 6 -1 10 5 10 6 0 8 5
5 10 -3 6 -1 10 4 10 6 0 11 5 11 11 0 6 10 32 23 58 13 25 24 48 25 51 0 3 6
19 13 35 7 17 13 32 14 35 0 3 6 15 13 28 7 12 10 22 7 22 -3 0 0 10 7 23 7
12 13 24 13 27 1 3 9 23 19 45 9 21 18 46 20 55 2 8 6 22 9 30 6 15 55 181 62
210 2 8 11 42 19 75 9 33 19 74 22 90 2 17 7 37 10 46 2 10 6 30 9 45 3 28 9
59 20 113 2 14 7 45 10 70 3 25 7 62 10 81 20 152 27 530 13 710 -47 596 -245
1173 -576 1680 -42 63 -85 127 -96 141 -12 15 -30 39 -41 54 -108 150 -325
387 -479 520 -31 28 -68 60 -81 72 -14 12 -42 34 -62 50 -21 15 -40 30 -43 33
-10 10 -68 55 -90 70 -13 8 -35 25 -50 38 -15 12 -33 22 -39 22 -6 0 -11 4
-11 8 0 5 -12 15 -27 23 -15 8 -54 31 -85 52 -31 20 -61 37 -67 37 -5 0 -11 3
-13 8 -4 9 -66 44 -138 78 -30 15 -57 31 -58 35 -2 5 -8 7 -13 3 -5 -3 -9 -1
-9 4 0 9 -37 25 -52 23 -5 -1 -8 3 -8 9 0 6 -3 9 -7 8 -5 -2 -29 7 -55 20
-116 54 -137 63 -157 67 -12 2 -27 7 -34 12 -6 4 -14 8 -17 9 -3 0 -18 6 -35
13 -24 10 -110 39 -135 46 -3 1 -39 12 -80 24 -41 13 -79 24 -85 25 -5 1 -19
5 -30 9 -11 3 -31 8 -45 11 -14 3 -35 7 -47 10 -36 9 -66 16 -93 21 -14 3 -36
7 -50 10 -13 2 -42 7 -64 11 -22 3 -43 7 -46 9 -3 1 -32 6 -65 10 -33 3 -76 9
-95 12 -19 3 -53 7 -75 9 -55 5 -532 13 -536 10z"/>
</g>
</svg>
