<?xml version="1.0" standalone="no"?>
<!DOCTYPE svg PUBLIC "-//W3C//DTD SVG 20010904//EN"
 "http://www.w3.org/TR/2001/REC-SVG-20010904/DTD/svg10.dtd">
<svg version="1.0" xmlns="http://www.w3.org/2000/svg"
 width="1024.000000pt" height="1024.000000pt" viewBox="0 0 1024.000000 1024.000000"
 preserveAspectRatio="xMidYMid meet">
<metadata>
Created by potrace 1.14, written by Peter Selinger 2001-2017
</metadata>
<g transform="translate(0.000000,1024.000000) scale(0.100000,-0.100000)"
fill="#000000" stroke="none">
<path d="M0 5120 l0 -5120 5120 0 5120 0 0 5120 0 5120 -5120 0 -5120 0 0
-5120z m7039 2685 c18 -11 42 -36 53 -55 17 -33 18 -57 16 -360 -3 -318 -3
-326 -25 -356 -47 -66 27 -61 -1243 -69 -716 -4 -1176 -10 -1210 -16 -182 -34
-328 -108 -458 -233 -198 -189 -296 -457 -277 -756 10 -163 39 -275 122 -477
4 -10 -79 -13 -396 -13 -450 0 -431 -3 -476 74 -33 58 -73 191 -97 326 -26
145 -28 414 -5 565 40 256 146 516 292 720 274 381 694 626 1140 665 50 4 639
7 1310 6 1201 -1 1221 -1 1254 -21z m229 -1515 c61 -37 63 -53 60 -426 l-3
-336 -33 -29 -32 -29 -1290 0 -1290 0 0 23 c0 47 41 184 80 265 70 146 145
243 264 338 93 74 180 122 289 159 154 51 187 53 1087 54 821 1 836 1 868 -19z
m-1721 -1469 c-8 -69 -49 -206 -85 -276 -122 -244 -329 -407 -614 -486 l-83
-23 -891 -4 -892 -3 -30 26 c-17 15 -36 43 -42 63 -13 49 -13 615 1 665 12 44
41 74 84 86 16 5 597 10 1294 10 l1264 1 -6 -59z m1456 48 c54 -15 91 -71 132
-203 46 -148 65 -262 72 -432 13 -312 -55 -615 -199 -884 -76 -142 -142 -233
-258 -354 -283 -294 -620 -456 -1028 -496 -55 -5 -627 -10 -1307 -10 -1196 0
-1210 0 -1243 20 -59 36 -62 55 -62 402 0 291 1 314 20 353 13 27 34 50 63 66
l42 24 1175 5 1175 5 85 27 c172 54 267 108 383 217 296 279 377 755 202 1188
l-33 83 371 0 c229 0 387 -4 410 -11z"/>
</g>
</svg>
